<?xml version="1.0" encoding="UTF-8"?>
<svg enable-background="new 0 0 150 150" version="1.1" viewBox="0 0 150 150" xml:space="preserve" xmlns="http://www.w3.org/2000/svg">
<style type="text/css">
	.st0{fill:#F8991D;}
</style>
<path d="m52.5 72.4c-0.1-3.8 1-7.6 3.1-10.7 2.1-3 5-5.4 8.5-6.7 3.9-1.5 7.9-2.6 12.1-3 1.6-0.2 4.3-0.4 8-0.7v-1.5c0-3.9-0.4-6.5-1.3-7.8-1.3-1.8-3.3-2.7-6-2.7h-0.7c-1.9 0.1-3.7 0.8-5.2 1.9s-2.5 2.7-2.8 4.5c-0.1 1-0.8 1.9-1.8 2.1l-10.5-1.3c-0.9-0.1-1.5-0.8-1.5-1.6 0-0.2 0-0.4 0.1-0.6 1-5.4 3.6-9.4 7.6-12 4.2-2.7 9.1-4.2 14.1-4.4h2.3c6.9 0 12.3 1.8 16.2 5.4 0.6 0.6 1.2 1.3 1.7 2 0.4 0.6 0.9 1.2 1.2 1.9 0.4 0.7 0.7 1.5 0.8 2.4 0.2 1 0.4 1.7 0.5 2.1 0.2 0.8 0.3 1.7 0.3 2.5 0.1 1.3 0.1 2.1 0.1 2.3v22c0 1.5 0.2 2.9 0.7 4.3 0.3 1 0.8 1.9 1.3 2.8 0.4 0.6 1.1 1.5 2.1 2.8 0.3 0.4 0.5 0.9 0.5 1.5 0 0.5-0.3 1-0.7 1.3-5 4.4-7.8 6.7-8.2 7.1-0.8 0.6-1.8 0.6-2.6 0.2-0.8-0.7-1.6-1.4-2.2-2.1s-1.1-1.2-1.4-1.5c-0.5-0.6-0.9-1.2-1.3-1.8-0.6-0.9-1-1.5-1.3-1.8-3.4 3.7-6.7 6-10 6.9-2.5 0.7-5.1 1-7.6 0.9-4.3 0.2-8.4-1.4-11.5-4.3-3.1-3-4.6-7.1-4.6-12.4zm15.7-1.8c-0.1 2 0.5 4.1 1.8 5.7 1.2 1.4 2.9 2.2 4.8 2.1 0.3 0 0.5 0 0.8-0.1 0.2 0 0.5-0.1 0.7-0.1 2.6-0.7 4.7-2.5 5.9-4.9 0.7-1.2 1.2-2.5 1.5-3.8 0.3-1.1 0.5-2.2 0.5-3.3v-4.2-2.3c-2.7-0.1-5.4 0.2-8 0.7-5.4 1.6-8 5-8 10.2z"/>
<path class="st0" d="m25.2 98.4c0.3-0.5 0.8-0.5 1.5-0.1 15 8.8 32.1 13.3 49.5 13.2 12 0 24-2.3 35.2-6.6 0.3-0.1 0.7-0.3 1.3-0.5s1-0.4 1.2-0.5c0.7-0.4 1.7-0.2 2.1 0.5 0.4 0.6 0.4 1.4-0.2 1.8-0.1 0.1-0.2 0.1-0.3 0.2-1.1 0.8-2.5 1.7-4.2 2.7-5.5 3.2-11.3 5.6-17.5 7.2-6.1 1.7-12.5 2.5-18.8 2.5-9.2 0.1-18.3-1.6-26.8-5-8.3-3.2-16-8-22.6-14-0.3-0.2-0.5-0.5-0.5-0.9-0.1-0.2 0-0.4 0.1-0.5zm81.2 1.5c0.1-0.3 0.3-0.5 0.5-0.7 1.3-0.9 2.8-1.6 4.4-2.1 2.2-0.6 4.5-0.9 6.7-1 0.6-0.1 1.2 0 1.7 0.1 2.7 0.2 4.4 0.7 4.9 1.4 0.3 0.5 0.4 1.1 0.4 1.6v0.6c-0.1 2.6-0.7 5.1-1.7 7.5-1 2.7-2.7 5.1-4.8 7-0.2 0.2-0.5 0.3-0.8 0.4-0.1 0-0.3 0-0.4-0.1-0.3-0.2-0.5-0.6-0.3-0.9v-0.1c2.2-5.3 3.4-8.9 3.4-11 0-0.5-0.1-1-0.4-1.5-0.6-0.7-2.3-1.1-5.1-1.1-1 0-2.2 0.1-3.6 0.2-1.5 0.2-2.9 0.4-4.2 0.5-0.3 0-0.5 0-0.7-0.2-0.1-0.1-0.1-0.2-0.1-0.4 0 0 0-0.1 0.1-0.2z"/>
</svg>
