<?xml version="1.0" encoding="UTF-8"?>
<svg enable-background="new 0 0 150 150" version="1.1" viewBox="0 0 150 150" xml:space="preserve" xmlns="http://www.w3.org/2000/svg">
<style type="text/css">
	.st0{fill:#5E5D70;}
</style>
<path class="st0" d="m85.9 44.7c2.9-3.6 4.9-8.5 4.4-13.4-4.3 0.2-9.3 2.8-12.4 6.4-2.7 3.1-5.1 8.2-4.4 13 4.6 0.3 9.4-2.4 12.4-6zm12.3 38.9h-58 58l-0.1-0.1c-1.4-3.2-1.9-6.8-1.4-10.2v-0.1c0.5-4.4 3.4-9 5.7-10.6 0 0 0.1 0 0.1-0.1 0.9-0.9 1.9-1.7 2.9-2.4-3.5-5.1-9.3-8.2-15.5-8.2-6-0.5-12.3 3.8-15.7 3.7-3.3 0.1-8.2-3.8-13.4-3.6h-0.1c-0.1 0-1.1 0.1-1.1 0.1-7 0.3-13.3 4.3-16.5 10.4-1.8 3.3-2.9 7-3.3 10.7v0.2c-0.2 3.4-0.1 6.9 0.4 10.3v0.1c0.5 3.5 1.4 7 2.7 10.3 1.5 3.7 3.3 7.3 5.5 10.7 3.5 5.1 7.7 10.8 13.2 10.6 5.3-0.2 7.3-3.5 13.7-3.5 6.4-0.1 8.2 3.3 13.8 3.3 5.7-0.2 9.3-5.3 12.8-10.4 2.2-3.4 4-6.9 5.4-10.7 0.1-0.3 0.3-0.8 0.4-1.2-3.8-1-8-6-9.5-9.3z"/>
</svg>
