<?xml version="1.0" encoding="UTF-8"?>
<svg enable-background="new 0 0 150 150" version="1.1" viewBox="0 0 150 150" xml:space="preserve" xmlns="http://www.w3.org/2000/svg">
<style type="text/css">
	.st0{fill:#DE4639;}
</style>
<path class="st0" d="m86.5 103.9v-0.8c0.1-1.4 0.2-2.5 0.2-2.8 0-1 1.7-11.6 1.9-14 0.3-2.4-0.4-3-0.4-3 1.6-9-1.4-18.7-1.4-18.7 1.1-0.9-1.1-5.7-1.1-5.7-1.6-4-3.6-9.6-3.6-9.6-0.3-1.3-0.8-3.1-1.1-5.2-0.3-3.1-0.3-6.3-0.3-7.3 0-0.8 1-0.8 1-1.5-0.2-1.1-0.6-2.1-1-3.1 0-0.2 0-0.5 0.1-0.7s0.2-0.3 0.3-0.4c0-1-0.8-1.9-1.8-1.9h-8.6c-1 0-1.9 0.9-1.8 1.9 0.1 0.1 0.2 0.3 0.3 0.4 0.1 0.2 0.1 0.5 0.1 0.7-0.5 1-0.8 2-1 3.1 0 0.7 1 0.7 1 1.5 0 1 0 4.2-0.3 7.3-0.3 2-0.8 3.9-1.1 5.2 0 0-2 5.6-3.6 9.6 0 0-2.2 4.8-1.1 5.7 0 0-2.9 9.7-1.4 18.7 0 0-0.6 0.6-0.4 3s1.9 13 1.9 14c0 0.4 0.1 1.4 0.2 2.9v0.8c0 6.4-2.6 9.5-2.6 13.7 0 5.5 3.4 8.4 14.1 8.4s14.1-2.9 14.1-8.4c0-4.2-2.6-7.4-2.6-13.8z"/>
</svg>
