<?xml version="1.0" encoding="UTF-8"?>
<svg enable-background="new 0 0 150 150" version="1.1" viewBox="0 0 150 150" xml:space="preserve" xmlns="http://www.w3.org/2000/svg">
<style type="text/css">
	.st0{fill:#5995C4;}
</style>
<path class="st0" d="m120.4 57.5c2.4-9.1-3-18.3-12.1-20.7h-0.1c-9.1-2.4-18.5 3-21 12.1-1.1 4-0.6 8.3 1.3 12-8.6-4.1-18.6-3.6-26.8 1.2 0.5-0.9 0.8-1.9 1.1-3 2.4-9.1-3-18.3-12.1-20.7h-0.1c-9.1-2.4-18.5 3-21 12.1-2.4 9.1 3.1 18.3 12.1 20.7h0.1c3.6 0.9 7.4 0.7 10.8-0.7-3.4 4.9-5.1 10.9-4.8 16.9 1 15.7 14.5 27.6 30.1 26.6 15.2-0.9 26.9-13.7 26.6-28.9-0.2-5.6-2.1-11-5.5-15.5 0.1 0 0.2 0.1 0.4 0.1 9.2 2.3 18.5-3.1 21-12.2z"/>
</svg>
