<?xml version="1.0" encoding="UTF-8"?>
<svg enable-background="new 0 0 150 150" version="1.1" viewBox="0 0 150 150" xml:space="preserve" xmlns="http://www.w3.org/2000/svg">
<style type="text/css">
	.st0{fill:#2568B7;}
</style>
<path class="st0" d="m119.5 75c0-24.6-19.9-44.5-44.5-44.5s-44.5 19.9-44.5 44.5 19.9 44.5 44.5 44.5 44.5-19.9 44.5-44.5zm-2.1 0c0 23.4-19 42.4-42.4 42.4s-42.4-19-42.4-42.4 19-42.4 42.4-42.4 42.4 18.9 42.4 42.4v0zm-2.7 0c0-14.1-7.2-28.6-22.6-33.3-2.9-1-5.9-1.5-9-1.6-7.1 0-7.4 4.1-10.7 4.1-1.6 0.1-3-1.2-3.1-2.8v-0.2c0-2.8 3.3-5 8.6-5 3.2 0 6.4 0.5 9.5 1.6l0.1-0.3c-4-1.4-8.3-2.2-12.6-2.1-14.2 0-28.6 7.3-33.3 22.6-1 2.9-1.5 5.9-1.6 9 0 7.2 4.1 7.5 4.1 10.8 0 1.6-1.2 2.9-2.8 3h-0.1c-2.8 0-5-3.2-5-8.7 0-3.2 0.5-6.4 1.4-9.5l-0.3-0.1c-1.3 4.1-2 8.3-2 12.6 0 14.3 7.3 28.7 22.6 33.4 2.9 1 5.9 1.5 9 1.6 7.2 0 7.4-4.2 10.7-4.2 1.7 0 3.1 1.3 3.1 3 0 2.7-3.2 4.9-8.7 4.9-3.2 0-6.4-0.5-9.5-1.5l-0.1 0.4c4 1.4 8.3 2.1 12.6 2 14.2 0 28.7-7.2 33.3-22.6 1-2.9 1.5-5.9 1.6-8.9 0-7.3-4.1-7.5-4.1-10.8-0.1-1.6 1.1-3 2.7-3.1h0.3c2.9 0 5.1 3.3 5.1 8.7 0 3.2-0.5 6.4-1.5 9.5l0.4 0.1c1.2-4 1.9-8.3 1.9-12.6zm-14.9 11.8c-0.2 6.4-5.5 11.4-11.8 11.3-8.5 0-12.8-7.2-12.8-13.6-0.1-6 3.3-11.6 8.7-14.2-0.5-0.4-0.9-0.9-1.2-1.5-3.6 2.6-7.4 5-11.3 7.2-0.1 3.8-0.6 7.6-1.6 11.2-2.1 6.3-6.4 10.8-12.1 10.8-3.7 0.2-6.9-2.7-7.1-6.4v-0.8c0.3-3.4 1.9-6.5 4.4-8.7 4-3.2 8.3-5.9 12.9-8 0.1-0.7 0.3-1.4 0.4-2.3-1.4 1.2-3.1 1.8-4.9 1.7-2.6-0.2-4.7-2-5.2-4.6-3.5-0.2-6.3-3.1-6.2-6.7 0-2.8 1.1-5.3 3-5.3 0.5 0 1 0.4 1 1v0.1c-0.3 1.2-0.5 2.4-0.6 3.7-0.3 1.8 0.9 3.4 2.7 3.7 0-6.4 4.7-14.7 10.2-14.7 2.1-0.2 3.9 1.2 4.2 3.3v0.7c0 5.8-5.8 12.2-10.5 13.8 0.2 1 1.1 1.8 2.1 1.9 2.1-0.3 3.9-1.4 5.2-3.1 0.5-2.6 2.3-6.3 4.8-6.3 0.8 0 1.5 0.6 1.5 1.4v0.2c0 1.8-2 4.2-3.5 5.8-0.2 1.2-0.3 2.5-0.3 3.7 3.3-1.9 6.6-4 9.7-6.3-0.2-0.9-0.3-1.9-0.3-2.9 0-5.8 3.8-12.2 8.9-12.2 2.2-0.1 4.2 1.5 4.3 3.8v0.4c0 4.2-3.6 7.9-8.6 11.7 0.3 1 1 1.8 2 2.3 1-0.4 2-0.6 3.1-0.5 1.5 0 3.6 0.4 3.6 1.9 0 1.7-2.3 2.1-4.2 2.1-0.9 0-1.7-0.1-2.6-0.3-5 1.6-8.3 6.5-7.9 11.7 0 5.3 3.3 10.2 8.5 10.2 4 0 7.3-3.2 7.3-7.3v-0.3c0-2.9-1.2-6.1-4.2-6.1-1.5 0-2.8 1.2-2.8 2.7-0.1 2.5 1.7 2.7 1.7 4.3 0 0.9-0.7 1.6-1.5 1.6h-0.2c-2.5 0-4.3-2.5-4.3-5.5 0.2-3.9 3.5-7 7.4-6.8 5.2 0.5 8.1 5.2 8.1 10.2zm-9.1-31c0.2-0.6-0.2-1.2-0.8-1.3h-0.1c-1.8 0-4.8 4-4.8 9 3.7-3.3 5.7-6 5.7-7.7zm-21.9-0.5c0.1-0.4-0.2-0.8-0.7-0.9h-0.2c-2.6 0-6.3 6.8-6.3 10.8 4.1-2.2 7.2-7.2 7.2-9.9zm-1.4 23c-5.5 2.7-12.6 7.5-12.6 12.8-0.2 1.5 0.8 2.9 2.3 3.2h0.5c5.4 0 8.8-8.6 9.8-16z"/>
</svg>
