<?xml version="1.0" encoding="UTF-8"?>
<svg enable-background="new 0 0 150 150" version="1.1" viewBox="0 0 150 150" xml:space="preserve" xmlns="http://www.w3.org/2000/svg">
<style type="text/css">
	.st0{fill:#039BDB;}
</style>
<path class="st0" d="m67.5 26h-0.2c-4.1 11.5-6.4 18.4-10.5 29.9 3 0.1 5.9 0 8.9 0 2.2 0 4.3 1.1 5.6 2.9 1.3 2.2 1.4 4.8 0.4 7.2-4 11.3-8.1 22.5-12.2 33.8h-10.7c-0.5 0-1 0-1.5-0.1 4.5-12.4 9-24.8 13.4-37.2h-6.4c-0.3 0.7-0.6 1.4-0.8 2.1-4 11.4-8.1 22.8-12.2 34.3-0.2 0.3-0.1 0.9-0.6 0.9h-10.2c-0.6 0-1.2 0-1.8-0.1 9.3-25.6 17.1-48.2 26.4-73.7m55.4 34.3c-0.8-2.1-2.5-3.7-4.7-4.2-1.8-0.4-3.7-0.5-5.6-0.4h-17.1c-0.1 0.2-0.3 0.6-0.4 0.7-9.3 25.8-16.7 46.9-25.9 72.6h12.5c4-11.2 5.5-16.4 9.6-27.6 4.4-0.1 8.9 0 13.3-0.1 2.9 0 5.5-1.8 6.6-4.5 3.8-10.5 7.6-21 11.3-31.5 0.6-1.6 0.7-3.3 0.4-5zm-23 34.6c-2.1 0.2-4.3 0.1-6.4 0l11.7-32.4c0.4-0.4 1-0.2 1.5-0.2h4.9c-3.9 10.9-7.9 21.7-11.7 32.6z"/>
</svg>
