<?xml version="1.0" encoding="UTF-8"?>
<svg enable-background="new 0 0 150 150" version="1.1" viewBox="0 0 150 150" xml:space="preserve" xmlns="http://www.w3.org/2000/svg">
<style type="text/css">
	.st0{fill:#FFFFFF;}
</style>
<path d="m75.8 32.1v7c-2.6-2.8-6.4-7-6.4-7h-17.8v86.1l10.2 7.9 10.7-1.3s0.1-4.5 0.1-7.6c3.5 2.8 8.3 6.7 8.3 6.7l17.4-1.7v-81.3l-9.5-8.8h-13zm2.9 67.5-0.6 0.1-10.1-65.3h-13.6v81.9s2.7-0.4 8.4-1l-0.6-62.3 0.6-0.1 9.7 61.4s3.3-0.4 14.6-1.5v-78.4h-8.7l0.3 65.2z"/>
<path class="st0" d="m76.7 100-0.6 0.1-9.8-65.9h-13v82.7s2.6-0.4 8.1-1l-0.6-62.9 0.6-0.1 9.3 62s3.2-0.4 14-1.5v-79.3h-8.3l0.3 65.9z"/>
</svg>
