<?xml version="1.0" encoding="UTF-8"?>
<svg enable-background="new 0 0 150 150" version="1.1" viewBox="0 0 150 150" xml:space="preserve" xmlns="http://www.w3.org/2000/svg">
<style type="text/css">
	.st0{fill:#63D4F7;}
</style>
<path class="st0" d="m119 51.5c-3.2 1.5-6.6 2.5-10.1 2.8 2.7-1.4 6.6-6.1 7.6-9.8-2.6 1.6-8.4 4-11.3 4-7-7.2-18.5-7.4-25.7-0.5-3.5 3.4-5.5 8-5.6 12.9 0 1.4 0.2 2.7 0.5 4-13.6-0.4-28.5-7.1-37.4-18.7-5.5 9.5-0.7 20 5.5 23.8-2.1 0.2-6.1-0.2-7.9-2-0.1 6.3 2.9 14.6 14 17.6-2.1 1.1-5.9 0.8-7.6 0.6 0.6 5.3 8.1 12.2 16.2 12.2-2.9 3.3-13.9 9.4-26.2 7.5 8.6 5.2 18.4 8 28.4 8 29.3 0 52-23.6 50.8-52.6v-0.1-0.2s0-0.2 0-0.3c3.5-2.4 6.5-5.5 8.8-9.2z"/>
</svg>
